<svg width="560" height="69" viewBox="0 0 560 69" fill="none" xmlns="http://www.w3.org/2000/svg">
<g clip-path="url(#clip0_1103_7728)">
<path d="M2.71426 33.3289C1.821 32.8996 1.08142 32.206 0.595883 31.342C0.110342 30.4781 -0.0976498 29.4857 0.000130344 28.4995C-0.0700555 27.509 0.15724 26.5201 0.652866 25.6596C1.14849 24.7991 1.88986 24.1063 2.78188 23.67C18.6803 14.2752 27.8144 8.84696 30.184 7.38525C31.5416 6.50037 32.9583 5.70971 34.4242 5.01884C34.9945 4.77512 35.6104 4.65655 36.2304 4.67112C37.4861 4.67112 38.7739 5.80764 40.094 8.08069C40.8081 9.03028 41.276 10.1419 41.4559 11.3164C41.4726 11.9646 41.3051 12.6043 40.9729 13.1612C40.2074 14.2201 39.2181 15.0973 38.0753 15.7305C24.2824 23.8632 17.1091 28.1292 16.5554 28.5284L38.1139 41.3264C38.7724 41.6883 39.3993 42.1051 39.9877 42.5724C40.4367 42.8807 40.8081 43.2888 41.0729 43.7647C41.3377 44.2407 41.4886 44.7715 41.5138 45.3155C41.4188 46.5282 40.9983 47.6927 40.2968 48.6864C39.7093 49.7271 38.974 50.6771 38.1139 51.5068C37.5654 52.0215 36.8471 52.3171 36.0952 52.3375C34.7963 52.2125 33.5502 51.7606 32.4731 51.0239L2.71426 33.3289Z" fill="#3AAFA9"/>
<path d="M493.167 54.97C492.8 55.762 492.51 56.3415 492.298 56.7086C492.037 57.1443 491.681 57.5144 491.255 57.7904C490.683 58.1658 490.006 58.3486 489.323 58.3119C488.108 58.1909 486.927 57.8367 485.846 57.2688C484.724 56.8223 483.68 56.1995 482.755 55.4239C482.508 55.1993 482.31 54.9267 482.172 54.6228C482.034 54.3189 481.96 53.99 481.953 53.6564C482.074 52.4654 482.353 51.296 482.784 50.1792L505.183 3.37248C506.062 1.61457 506.854 0.590737 507.549 0.310631C508.066 0.0970095 508.623 0.00131626 509.181 0.0305246C510.409 0.184423 511.598 0.564299 512.688 1.15095C515.199 2.34864 516.445 3.67191 516.445 5.11107C516.296 6.31139 515.97 7.4831 515.479 8.58825L493.167 54.97Z" fill="#3AAFA9"/>
<path d="M557.237 25.5904C558.129 26.0267 558.87 26.7195 559.366 27.5799C559.862 28.4404 560.089 29.4293 560.019 30.4198C560.019 32.7379 559.117 34.3478 557.314 35.2492L527.594 52.9249C525.228 54.451 523.334 54.6152 521.895 53.4079C521.102 52.6789 520.422 51.8357 519.877 50.9062C519.159 49.9157 518.683 48.7714 518.486 47.5643C518.469 46.9367 518.612 46.3151 518.901 45.7581C519.706 44.7173 520.728 43.8637 521.895 43.2564L543.521 30.4585L521.963 17.6605C521.132 17.1486 520.504 16.6946 520.089 16.4145C519.632 16.078 519.256 15.6428 518.99 15.1411C518.724 14.6394 518.575 14.0842 518.553 13.5169C518.644 12.3197 519.054 11.1689 519.741 10.1846C521.171 7.76985 522.523 6.5625 523.769 6.5625C525.121 6.6438 526.422 7.10222 527.526 7.88576L557.237 25.5904Z" fill="#3AAFA9"/>
<path d="M73.6166 4.80206H91.0702C95.0051 4.72328 98.9063 5.5425 102.477 7.19745C105.67 8.66914 108.362 11.0445 110.22 14.0298C112.077 17.0151 113.019 20.4794 112.928 23.9942C112.929 25.6166 112.764 27.2348 112.435 28.8236C110.832 37.0143 107.361 43.1541 102.023 47.243C96.6852 51.3319 89.8821 53.3892 81.6142 53.415H63.3203L73.6166 4.80206ZM83.6232 43.0511C87.4818 43.1819 91.2435 41.8266 94.132 39.2648C97.0506 36.4831 99.0205 32.8541 99.7631 28.8912C100.102 27.3029 100.286 25.6856 100.314 24.0618C100.391 22.8608 100.218 21.6569 99.8053 20.5264C99.393 19.3958 98.7504 18.3631 97.9183 17.4938C96.3149 15.9387 93.6684 15.166 89.9594 15.166H83.7005L77.7893 43.0511H83.6232Z" fill="#3AAFA9"/>
<path d="M118.544 50.8756C116.974 49.7279 115.712 48.2107 114.87 46.4584C114.027 44.706 113.63 42.7729 113.714 40.8304C113.721 39.4966 113.86 38.1668 114.129 36.8606C115.06 31.7243 117.755 27.0745 121.75 23.7149C125.614 20.5661 130.794 18.9917 137.291 18.9917C140.177 18.9212 143.038 19.5404 145.637 20.7979C147.878 21.8899 149.759 23.6031 151.055 25.7336C152.33 27.8524 152.992 30.2831 152.968 32.7556C152.955 33.9518 152.816 35.1433 152.552 36.31L151.586 40.8304H124.938C125.086 44.3462 128.402 46.1073 134.886 46.1138C137.167 46.107 139.444 45.9197 141.696 45.5535C143.826 45.2432 145.921 44.7323 147.955 44.0274L146.293 52.0733C144.081 52.8602 141.797 53.4295 139.474 53.7732C136.809 54.2156 134.111 54.4385 131.409 54.4397C126.032 54.4525 121.744 53.2645 118.544 50.8756ZM141.628 33.1806C141.681 32.8095 141.703 32.4348 141.696 32.0601C141.74 31.4071 141.631 30.7528 141.377 30.1492C141.124 29.5456 140.734 29.0093 140.237 28.583C139.259 27.7974 137.613 27.4046 135.302 27.4046C133.309 27.3384 131.344 27.8845 129.671 28.9693C128.168 29.9651 127.061 31.4548 126.541 33.1806H141.628Z" fill="#3AAFA9"/>
<path d="M155.68 20.0352H167.502L170.883 39.4398L182.57 20.0352H195.223L174.176 53.4161H162.586L155.68 20.0352Z" fill="#3AAFA9"/>
<path d="M203.31 4.79688H224.733C229.325 4.79688 233.046 5.95593 235.899 8.27406C238.752 10.5922 240.175 13.8118 240.168 17.9329C240.158 19.1962 240.019 20.4552 239.753 21.6902C238.594 27.2537 236.124 31.5068 232.345 34.4495C228.565 37.3922 223.616 38.8636 217.499 38.8636H208.391L205.329 53.3518H193.023L203.31 4.79688ZM217.798 28.5093C220.58 28.5093 222.689 28.0232 224.125 27.0508C225.561 26.0785 226.559 24.2948 227.119 21.6998C227.258 21.034 227.351 20.3596 227.399 19.6811C227.462 18.9832 227.324 18.2818 227.002 17.6592C226.681 17.0366 226.189 16.5184 225.583 16.1653C224.022 15.4328 222.302 15.1008 220.58 15.1994H213.384L210.603 28.548L217.798 28.5093Z" fill="#262626"/>
<path d="M244.763 20.0383H257.001L249.902 53.4193H237.664L244.763 20.0383ZM247.96 14.243C247.475 13.7852 247.093 13.2283 246.841 12.61C246.59 11.9917 246.474 11.3266 246.502 10.6596C246.501 9.29284 246.886 7.95356 247.613 6.79608C248.34 5.59836 249.356 4.60211 250.568 3.89843C251.756 3.18702 253.115 2.81301 254.499 2.81664C255.206 2.7889 255.911 2.90089 256.574 3.1462C257.237 3.39151 257.845 3.76531 258.363 4.24614C258.855 4.71501 259.243 5.28261 259.501 5.91178C259.759 6.54095 259.882 7.21751 259.86 7.89718C259.843 8.33029 259.805 8.76228 259.744 9.19147C259.33 10.9961 258.307 12.6029 256.847 13.7408C255.446 14.9227 253.676 15.5756 251.843 15.5856C250.422 15.6614 249.027 15.1758 247.96 14.2334V14.243Z" fill="#262626"/>
<path d="M263.673 20.0371H275.496L274.733 23.3694C278.372 20.4897 282.89 18.9453 287.53 18.994C291.34 18.831 295.065 20.1499 297.923 22.674C299.26 23.9372 300.31 25.4736 301 27.1787C301.69 28.8837 302.004 30.7174 301.922 32.555C301.911 33.9332 301.772 35.3074 301.507 36.66C300.557 41.6745 297.993 46.2406 294.205 49.6608C290.541 52.8804 285.789 54.4902 279.948 54.4902C277.867 54.5156 275.797 54.189 273.825 53.5243C272.14 52.9632 270.62 51.9943 269.401 50.7039L265.537 68.65H253.367L263.673 20.0371ZM285.299 42.7064C287.187 41.1695 288.471 39.0138 288.921 36.6213C289.1 35.7732 289.19 34.9091 289.192 34.0424C289.245 33.2655 289.123 32.4866 288.835 31.7629C288.548 31.0392 288.102 30.389 287.53 29.8601C286.41 28.9007 284.671 28.4242 282.315 28.4306C280.44 28.4522 278.602 28.9492 276.972 29.8749C275.341 30.8006 273.973 32.1249 272.994 33.7237L271.738 39.6349C271.853 40.4005 272.117 41.136 272.516 41.7991C272.916 42.4621 273.443 43.0396 274.066 43.4984C275.433 44.474 277.082 44.973 278.76 44.9183C281.132 44.9707 283.447 44.1878 285.299 42.7064Z" fill="#262626"/>
<path d="M309.294 50.8756C307.724 49.728 306.462 48.2107 305.62 46.4584C304.777 44.706 304.38 42.7729 304.464 40.8304C304.474 39.4963 304.616 38.1665 304.889 36.8606C305.812 31.7239 308.505 27.0728 312.5 23.7149C316.364 20.5661 321.544 18.9917 328.041 18.9917C330.927 18.9212 333.788 19.5404 336.387 20.7979C338.64 21.8879 340.534 23.6007 341.844 25.7336C343.101 27.8581 343.749 30.2874 343.718 32.7556C343.71 33.9521 343.571 35.1441 343.302 36.31L342.336 40.8304H315.697C315.833 44.3462 319.146 46.1073 325.636 46.1138C327.921 46.107 330.201 45.9197 332.455 45.5535C334.585 45.2432 336.681 44.7323 338.714 44.0274L337.014 52.0733C334.822 52.8643 332.557 53.4401 330.253 53.7925C327.588 54.2349 324.89 54.4579 322.188 54.459C316.792 54.459 312.494 53.2645 309.294 50.8756ZM332.388 33.1806C332.435 32.809 332.458 32.4347 332.455 32.0602C332.497 31.4073 332.387 30.7537 332.134 30.1505C331.881 29.5473 331.492 29.0108 330.997 28.583C330.025 27.7974 328.376 27.4046 326.052 27.4046C324.059 27.3403 322.094 27.8862 320.421 28.9693C318.924 29.971 317.818 31.4585 317.291 33.1806H332.388Z" fill="#262626"/>
<path d="M355.471 2.01953L367.709 2.01953L356.794 53.4142H344.547L355.471 2.01953Z" fill="#262626"/>
<path d="M370.551 20.0378H382.788L375.699 53.4187H363.461L370.551 20.0378ZM373.748 14.2425C373.263 13.7835 372.883 13.2264 372.631 12.6084C372.38 11.9904 372.263 11.3258 372.289 10.659C372.293 9.29293 372.677 7.9549 373.4 6.79551C374.127 5.59778 375.144 4.60154 376.355 3.89785C377.543 3.18736 378.902 2.81341 380.287 2.81606C381.713 2.7643 383.101 3.27811 384.15 4.24557C384.643 4.71444 385.031 5.28203 385.289 5.91121C385.547 6.54038 385.669 7.21694 385.647 7.89661C385.625 8.34019 385.577 8.78206 385.502 9.21987C385.089 11.0248 384.066 12.6319 382.605 13.7692C381.192 14.9448 379.411 15.5874 377.572 15.585C376.158 15.6557 374.771 15.1705 373.709 14.2328L373.748 14.2425Z" fill="#262626"/>
<path d="M389.484 20.0396H401.307L400.466 23.7196C402.235 22.1817 404.276 20.9891 406.484 20.2038C408.615 19.4321 410.863 19.0335 413.129 19.0254C416.693 19.0254 419.456 19.9913 421.397 21.981C422.361 22.9664 423.114 24.137 423.612 25.422C424.11 26.707 424.342 28.0796 424.295 29.4569C424.281 30.5089 424.165 31.5571 423.947 32.5864L419.562 53.4495H407.353L411.391 34.1318C411.571 33.4052 411.662 32.6591 411.661 31.9103C411.694 31.4421 411.624 30.9725 411.458 30.5338C411.291 30.0952 411.031 29.6981 410.695 29.37C409.763 28.7101 408.626 28.4021 407.488 28.5007C405.905 28.5059 404.346 28.8866 402.939 29.6115C401.397 30.4192 400.036 31.5334 398.94 32.8858L394.623 53.4012H382.414L389.484 20.0396Z" fill="#262626"/>
<path d="M431.973 50.8756C430.404 49.728 429.142 48.2107 428.299 46.4584C427.457 44.706 427.06 42.7729 427.144 40.8304C427.15 39.4966 427.289 38.1668 427.559 36.8606C428.49 31.7268 431.181 27.0781 435.17 23.7149C439.034 20.5661 444.217 18.9917 450.721 18.9917C453.607 18.9212 456.468 19.5404 459.066 20.7979C461.319 21.8853 463.21 23.5989 464.514 25.7336C465.795 27.8504 466.464 30.2813 466.446 32.7556C466.433 33.9518 466.294 35.1433 466.03 36.31L465.064 40.8304H438.367C438.503 44.3462 441.819 46.1073 448.316 46.1138C450.581 46.1045 452.842 45.9171 455.077 45.5535C457.207 45.2432 459.303 44.7323 461.336 44.0274L459.684 52.0733C457.491 52.862 455.227 53.4377 452.923 53.7925C450.258 54.2346 447.56 54.4575 444.858 54.459C439.468 54.459 435.174 53.2645 431.973 50.8756ZM455.058 33.1806C455.11 32.8095 455.133 32.4348 455.125 32.0602C455.169 31.4071 455.06 30.7528 454.807 30.1492C454.554 29.5456 454.164 29.0094 453.667 28.583C452.695 27.7974 451.049 27.4046 448.731 27.4046C446.738 27.3372 444.773 27.8834 443.1 28.9693C441.598 29.9651 440.491 31.4548 439.971 33.1806H455.058Z" fill="#262626"/>
</g>
<defs>
<clipPath id="clip0_1103_7728">
<rect width="560" height="68.6453" fill="white"/>
</clipPath>
</defs>
</svg>
